<svg xmlns="http://www.w3.org/2000/svg" xml:space="preserve" viewBox="0 0 512 512">
  <path d="M74.143 116.17c-30.136 0-54.584 24.44-54.584 54.583 0 30.152 24.448 54.584 54.584 54.584 30.152 0 54.584-24.432 54.584-54.584 0-30.143-24.432-54.583-54.584-54.583zm-.024 142.765c-25.85 0-47.731 19.98-46.82 46.812l12.834 172.26C41.615 497.456 55.352 512 74.119 512c18.775 0 32.251-14.077 33.994-33.994l12.826-172.26c1.625-26.831-20.962-46.811-46.82-46.811zm363.738-33.598c30.144 0 54.584-24.432 54.584-54.584 0-30.144-24.44-54.583-54.584-54.583s-54.583 24.44-54.583 54.583c0 30.153 24.439 54.584 54.583 54.584zm-.024 33.598c-25.858 0-47.738 19.98-46.819 46.812l12.834 172.26c1.481 19.449 15.21 33.993 33.985 33.993 18.776 0 32.251-14.077 33.986-33.994l12.826-172.26c1.624-26.831-20.954-46.811-46.812-46.811zM327.731 87.405l-3.446 12.652c10.94 2.979 20.201 8.548 26.578 15.495 6.402 6.98 9.927 15.164 9.934 23.973-.007 7.09-2.289 13.744-6.496 19.742-4.207 5.981-10.371 11.234-17.952 15.116l-5.538 2.836 7.177 16.05c-21.754-3.787-41.94-10.845-52.135-14.822l-.206-.08-.206-.063c-13.689-4.294-24.36-12.732-29.796-22.698l-11.502 6.315c7.352 13.372 20.716 23.528 36.956 28.749v.008c12.62 4.888 39.144 14.188 67.006 17.31l11.4 1.259-11.78-26.34c6.916-4.357 12.842-9.753 17.302-16.098 5.594-7.922 8.897-17.302 8.882-27.284.015-12.438-5.11-23.877-13.382-32.845-8.284-9-19.693-15.71-32.796-19.275z" class="st0"/>
  <path d="M301.144 119.276c10.632-12.145 17.088-27.244 17.08-43.564.008-10.671-2.757-20.867-7.645-30.009-7.351-13.737-19.425-25.129-34.358-33.122C261.272 4.603 243.415.008 224.252 0c-25.525.008-48.777 8.16-65.864 21.667-8.548 6.758-15.559 14.878-20.447 24.036-4.896 9.142-7.645 19.338-7.645 30.009-.008 13.61 4.484 26.413 12.168 37.313 6.568 9.324 15.448 17.294 25.921 23.537l-15.773 35.285 11.392-1.26c39.349-4.405 77.019-17.595 94.908-24.519 17.001-5.434 31.672-14.727 42.232-26.792zm-46.78 14.482-.206.079c-15.48 6.021-46.796 16.954-80.084 22.142l11.281-25.216-5.537-2.836c-11.179-5.72-20.329-13.507-26.626-22.451-6.306-8.968-9.769-19.036-9.776-29.763 0-8.422 2.138-16.422 6.092-23.83 5.918-11.091 16.011-20.796 28.971-27.72 12.961-6.932 28.734-11.043 45.774-11.035 22.744-.008 43.2 7.32 57.745 18.83 7.273 5.752 13.063 12.533 17.009 19.924 3.953 7.408 6.091 15.408 6.1 23.83-.008 12.834-4.983 24.78-13.84 34.929-8.842 10.124-21.596 18.308-36.696 23.061l-.207.056z" class="st0"/>
  <path d="M187.2 67.362c-5.64 0-10.204 4.571-10.204 10.204 0 5.633 4.563 10.204 10.204 10.204 5.633 0 10.204-4.57 10.204-10.204-.001-5.633-4.571-10.204-10.204-10.204zm39.357 0c-5.64 0-10.212 4.571-10.212 10.204 0 5.633 4.571 10.204 10.212 10.204 5.632 0 10.204-4.57 10.204-10.204 0-5.633-4.571-10.204-10.204-10.204zm39.35 0c-5.633 0-10.204 4.571-10.204 10.204 0 5.633 4.571 10.204 10.204 10.204 5.641 0 10.212-4.57 10.212-10.204 0-5.633-4.572-10.204-10.212-10.204z" class="st0"/>
</svg>
