<svg xmlns="http://www.w3.org/2000/svg" viewBox="0 0 957 389"><path fill="#ed142f" d="M190.7 148.8q3.2.1 5.7-.7 2.6-.8 4.6-3c3.4-3.7 7.2-6.8 10.9-10.2q19.8-18.4 40-35.6c1.6-1.4 3.7-2.6 5.2-4.3 2-2.3 5.1-3.3 7.4-5.6l6.2-6c8-6.9 15.5-13.7 23.7-20.2q5.5-4.4 10-9.3c1.8-1.9 3.9-3 5.9-4.6l3.2-2.8q2.3-2 5.3-2 38.3-.2 75.2.3c2.8 0 5.7.7 8.5.4q1.7-.3 3.5 0l7.7 1.2a1.2 1.2 0 0 1 1 1.6 8 8 0 0 1-3.3 4q-3.4 2.4-6.3 5.4-3.4 3.5-5.4 5c-4.5 3.7-8 6.7-13 11.6-3.2 3-7.2 6.2-10.1 8.8q-21 19-42 37.2-1.8 1.6-3.3 3.4c-1.4 1.6-3.2 2.4-4.8 3.8Q315.4 137.5 304 147c-2.3 2-4.3 4.3-6.6 6.3q-8.6 7.3-17.5 15.7-4.3 4-8.7 7.4-4.7 3.7-9 7.9-3.8 3.7-2.3 8.8l1 3.6c.5 2.6 2 4.4 2.9 7l1.2 3.6q1.3 3.7 2.4 7.6c.3 1.2 1.4 1.5 1.8 2.8 1.3 4.2 4.1 7.8 4.8 12.1.3 1.5 1.3 2.2 1.7 3.6q.8 3 2.2 6 2.3 4.5 4 11.5.6 2.4 2.1 4.7c1.6 2.6 1.1 5.5 2.6 8.1q1.8 3.2 2.8 6.7c1 3.5 3.3 6 4.1 9.8q.7 2.6 1.8 5 1.5 3.3 2.7 7 1 3 2.3 6c1.2 2.7 1.7 5.6 3.3 8q1.5 2.5 2 5.2c.7 3.2 2.6 5.8 3.8 8.8.7 2 .4 4.3 1.5 6.2q2 3 3 6.3c.7 2.4 2.3 4.4 2.8 7 .6 3.1 2.3 5.6 2.9 8.8q0 .5-.4.9-1.4 1.2-3.1 1.4c-3.4.2-6.7 0-10 .4-4.4.6-8.8 0-13.3 0q-33.5.2-67.7-.1-.6 0-1-.4l-1-.4q-3.2-.2-6.7-1.2-1-.3-1.2-1.3 0-.9-.4-1.6l-7.5-18.6c-1.8-4.4-3.2-8.8-5-13.3q-5.1-13-10.2-27.1c-.8-2.5-2-4.8-2.7-7.3-1.7-6.5-5-12.3-6.8-18.8-1.6-5.3-4.2-10.2-5.6-15.5a92.2 92.2 0 0 0-4.4-12.7l-2.7-6.3q-.8-2-1-3.8-.2-3.7-3.1-6.4-1.5-1.3-2.7.2c-2 2.6-3.7 4.7-4.1 7.7-.3 2-1.5 3.4-2 5.2q-1.5 5-2.8 10.1-.8 2.9-2.5 5.6-3 5-4.6 9.8c-1 3.1-3 5.8-3.2 9.1q0 2-1 3.8c-1.3 2.4-1.6 5.2-3.2 7.5-1.4 1.9-.8 4-1.7 6-1.6 3.8-2.4 7.6-4.6 11.5q-.3.4-.3 1c0 1.4-.9 2.2-1.4 3.4-.8 2-1.7 4-2.3 6q-1.6 6.4-4.4 12.2-1.6 3.2-2.7 7.3-.8 2.9-1.3 5.6-.4 2.3-1.6 4-3.7 5.4-4.9 12.7a3.2 3.2-1.4 0 1-2.5 2.6c-2.7.6-5.3 2.3-8.2 1.9-3.1-.5-6.3 0-9.3-.7-3.3-.8-6 .7-9.2.6l-7.3-.3c-2.1 0-4.7-.7-7.2-.5q-8.7.6-17.7.6c-3.6 0-7-1.1-10.8-.4a22 22 0 0 1-10.8 0q-2.7-1-5.3-1a1.3 1.3 0 0 1-1.3-1.2c-.1-2 .1-4 1-5.8 3-5.4 3.7-11.8 6.3-17.3q4.9-10.6 6.6-17.5 1.3-5 3.4-8.7 1.6-3 2.5-6.1 1.6-6 3.7-11.3 4.2-10.7 8-21.8l2.7-6.7c1.4-3 2.3-6 3.5-9q6.9-17.2 13.7-35.6c3.5-9.4 8.6-21 12-31.7 1.9-5.8 4.1-10.8 6-16.2q6.8-18.1 13.3-36.3c4.8-13.2 10.5-26.6 15-40.2 2-6.2 5-12.3 7.2-18.8 1.8-5.3 4.2-10.5 6.4-15.8 1.2-2.9 3.2-3.9 6.3-3.9 7.2 0 14.3-.4 20.9.3q1.7.2 3.3 0 5.7-.7 12.2 0 2.9.2 5.8-.2 2.6-.3 5.2-.2 5.3.2 11 .2 1.8 0 3.4-.4c1.8-.5 3 .6 5 .5q6-.6 12.2-1c1.3-.1 2.4 1.2 3.3 2q1.5 1.6 1.3 3.8-.3 3.3-2 5.7-1.3 1.8-1.8 3.8-2.8 9.9-7.4 19.8-3 6.6-5 12.6-4.3 13.1-9.4 24.8c-2.1 4.9-3.6 10-5.5 15-1.4 3.4-2 7-3.9 10.3q-.4.7-.5 1.5c-.2.8-.5 1.7-.3 2.4q.3 1.6 0 3.3 0 .5.5.6ZM458 277.7q.5.3.4 1-.1.5.4.9 1.2 1 2.7.9c6.7-.2 13.3.3 19.8.2q12.6-.3 25.3-.1c1.4 0 2 .6 3.5.6l12.5-.2q42.6.3 84.3.2 2.7 0 5.3 1 .4.2.5.6.3 3.2-.5 6c-.6 2-2.2 3.4-2.8 5.5q-1.1 3.7-3 7c-1 1.9-.5 4-1.6 6-1.5 2.8-1.8 5.7-3.1 8.6q-4.5 9.2-8 20.4c-.7 2.2-2.1 4.2-2.6 6.4q-.8 3.8-3 7.6-.2.5-.9.7c-2 .4-4-.1-6.1.3-4.3.8-8.2-.6-12.1-.1q-5.3.6-9.8.3-3.5-.2-7 0-5.8.3-11.3 0c-6.9-.5-13.7 0-20.5-.4-4.9-.2-9.2 1.1-14.2.4q-3.1-.4-6.5-.2-6.6.3-13.5.4-.5 0-.9.3-.8.5-1.7 0a1.5 1.5 0 0 0-.8-.3 22 22 0 0 0-5.1.4q-2.2.5-4.6 0-1.4-.4-2.7-.4H463c-2.6 0-5 1-7.6.4l-3.4-.4c-1.4 0-2.2.9-3.5.2a2.2 2-30.4 0 0-1-.2H442q-2.7 0-5.4.5-2.4.4-4.6-.1-2.3-.5-4.4-.5-26-.3-52-.2c-7.9 0-16.3-.4-24-.2q-3.2.1-7.3-1c-1.7-.4-3 0-4.6-.1q-.5 0-.6-.6-.5-2.5.2-3.9 1.6-3.6 2.8-7l11.7-33.6c1.9-5.6 4.6-10.8 6.5-16.4 3-9.6 6.4-19.4 9.3-29.2 1.5-5 3.5-9.6 5-14.6q2.2-7.7 4.5-14.8c1.3-3.8 4.2-8.2 5.7-12.7q1.5-4.8 3.6-10 2-5 3.6-9.8c2.5-7.5 4.7-14.8 7.6-22.3l4.6-12.2c1-2.8 2.4-5.4 3-8.4.5-1.9 1.7-3.3 2-5.3q.6-3.8 2-7l1.9-4.6c7.3-21.3 15.4-41.6 22.8-62.2 1-2.5.3-5.6 2-8.1 2.3-3.6 4.3-6.6 4.7-10.9q.2-2 1.3-3.6 1.9-3 4-5.8a5.6 5.6 0 0 1 4.8-2.6c6.4.4 13 0 19.6.2 5.7.2 11.2-.2 16.8-.3l.6.2q.4.3.9.3c4.7.3 9.2.6 14 .6l22.7-.2c7 0 14 .8 21 .7 18.9-.1 37.3.3 56 .1q19.1-.2 39.5.1h20.3q11.2-.1 23 .2a1.7 1.7 0 0 1 1.7 2.1q-.8 3.8-2.4 7.2l-1 2.8q-.2 1.6-1 3.1-.8 2-1.1 4-.4 2.5-1.1 4.4l-7.9 21.3c-.5 1.5-1.4 2.8-1.9 4.4q-2.6 9.8-6.9 18.9-.9 1.9-2.6 3.6-.4.4-1 .5-.7 0-1.1.5-.4.5-1 .5-10.5-.6-19-.4c-1.4.1-2.3-.6-3.6-.7-5.4-.2-10.7.6-16 0q-3.8-.3-7.4 0-4.5.6-8.4-.4-3.2-1-6.9-.1-2.7.5-5.6.5-6.5-.2-13.9 0c-3.6.1-6.8-1.1-10.3-1.2q-3.8 0-7.2.9h-1q-4.5-1.7-10-.8-1.5.3-3.3.2-.5 0-.8.3-.6.5-1.5.5c-7.9-.2-15.5.4-23.4 0-2.9-.2-5.6.2-7.6 2.4-4 4.4-6 9.1-7.5 14.6q-.6 2.5-2 5-2.3 3.8-3 8.8-.2 1.5-.8 2.9c-.6 1.3-.5 3 .7 3.9q2.9 2.1 6.1.8.5-.2 1 0 10 1.9 19.6 1.3c2.6-.1 5 .6 7.5 0q4.3-1 10.5-.8 2.3 0 4.4.7c2.7.8 5.7.1 8.5.1q23.1 0 37.8.2c5 0 9.8-.5 14.6 0q7.2.5 13.3-.3 3.3-.5 5.9-.4a.9.9 77.1 0 1 .7.5q.4.7 1.1.5h.9l3.1.5a1.3 1.3 0 0 1 1 1.7c-.5 2 0 4.3-1.2 6.1-1.1 1.7-1.8 4-2.3 5.9q-.6 2-1.5 4c-1.2 2.7-1.7 5.5-2.7 8.2q-2.9 7.7-4.8 14.3-1 3.7-3 7.9-2.7 5.1-4.8 12.6l-.5 3.7q-.5 3.5-3.5 5.5-1 .7-2 .8c-1.2 0-1.8.7-3 .8-4.3.2-8.7-.2-12.4-.1q-8.5.2-17.4 0c-2.2 0-4.4.7-6.6.4a23 23 0 0 0-5.1-.5q-7.3.5-14.3 0c-5-.2-10.3.4-15.4 0-4.3-.4-8.3.4-12.4.3q-23.7-.4-41.6-.2-11.6.1-14 12-1.6 8-5.5 13.5c-1.7 2.5-2 5.3-3.2 8q-1.1 2.7-1.6 5.5c0 .3-.2.5-.4.8q-.3.3-.3.6l-.3 5.5q0 .7.6 1.2Zm224.7-19.8q.6-.4 1.3-.4a1.7 1.7-57 0 0 .8-.2l17-8.4q1.2-.6 1.8.6l3 6.8c1 2.6.7 5.3 2.2 7.8 1.8 3 2.3 6.3 4.4 9 1.8 2.4 2.8 5.3 5.2 7.4q6.4 5.8 14.1 9.3 3.2 1.4 7.2 1.8l7.8.9q2.5.3 4.3-.8.5-.3 1-.3 2.2.3 4-.3 1.8-.7 3.7-.8 6-.2 10.7-3 3.5-2 7.2-4.4 1.8-1.2 4-2 3-1 4.7-3l5.7-6.8q2.3-2.6 3-6.5 0-.4.4-.7a1.3 1.2 74.2 0 0 .4-.8c.5-3.6 0-7.1-2.6-9.7-1.9-1.8-3.6-4.4-6-5.4q-1.8-.8-3.3-2.2c-.7-.7-1.6-.8-2.5-1.3q-.4-.3-1-.4l-7.4-2.2c-1.4-.5-2.2-2-3.6-2.2-2-.3-3.7-1.5-5.6-2.1q-5.1-1.8-11.6-4.8l-30.5-14.2q-3.2-1.5-8.1-5l-2.5-1.4c-1.5-.8-3.5-1.5-4.5-3-.6-1-1.1-1.7-2.2-2.3q-6.2-3.5-10.1-7.8-1.1-1.2-3.1-4.2c-2-3-3.2-6-4.7-9.2q-1-2.1-1.8-4.6l-2-6.2q-1-3-1.5-6l-.7-4.2q-.3-2-.2-4 .6-8.2 1.8-13.8.7-3.3.8-6 .2-2.9 1-4.9c1-2.6.9-6 2.6-8.2 1.8-2.3 1.6-5 3-7.5q2.9-5.3 5.6-9.8c.8-1.4 2-2.3 2.7-3.8q1-1.9 2.7-3 .4-.2.6-.7c.7-1.7 1.4-3.3 2.8-4.6a41 41 0 0 0 7-8q2.7-4.8 7-7.4 2.2-1.3 4.1-3.2 4-3.7 9.5-7 2.1-1.3 4.5-2a2 2-76.5 0 0 1-.6q3.2-3.8 8.6-5.8 1.2-.5 2.4-1.3c2.5-1.6 5.4-2.8 8-4 1.8-.9 4-.7 5.3-1.6q1.4-.9 3-1.1c2-.4 3.2-2 5-2.2q2 0 3.7-.7 3.7-1.3 7.1-1.9l5.1-1q2.8-.6 5.4-.9c1.8-.2 3.3-1.3 5.4-1.5 3.3-.3 6.4-1.5 9.7-1.6l13.7-.1q1.9 0 4.2-.8c1.7-.6 2.4.3 4 .3l11.4.2q.5 0 1-.3c1.1-.6 2.4-1 3.7-.4 3.6 1.7 7.5-.2 11.2 1.5q1.5.7 2.9.8 7.8.7 13.1 2.4l11 3.4c1.9.6 3.5 1.6 5.3 2.4q1.1.4 2.1 1l10.7 6.1q2.2 1.2 4 2.7c1.8 1.5 3.7 2.2 5.4 3.8l10.4 10c2.5 2.5 4 5.3 6.3 7.9a47 47 0 0 1 5.6 8.7c1.1 2 1.4 4.5 2.6 6.6 1 2 2.2 5 .9 7.2q-1.6 2.7-4.7 3.8-3.7 1.5-7.8 2.7c-2.6.8-4.2 2.7-6.7 3.5-1.6.5-2.8 1.7-4.4 2.2q-7.7 2.8-14.2 6.5-2 1.2-3.9 1.6c-3 .8-5.6 1.4-8.3 3.4-2.5 1.8-5.1 3-7.9 4.3q-1.6.8-3.4 1.2-5 1-9.4 3.5c-2 1-4.2 2-6.3 2.8q-3.2 1.1-3.7-2.3-.4-2.5-1.8-4.8l-.3-.8-.6-2q-3.3-7-8.8-11.7c-1.4-1.2-3-1.8-4.3-3.3q-.4-.5-1-.6c-3.7-.4-6.2-3.5-9.9-4.2q-1.6-.3-3.3-1.1c-1.8-.9-3.8-.6-5.6-1.5q-1-.4-2-.5-4.1-.2-8.5-.2c-2.8 0-4.9 1.2-7.7 1.3q-2.4 0-5 .9c-2.4.8-5 1-7 2.3l-7.4 4.5q-2.5 1.5-4.6 4.2-2.3 3-4.2 5.8a2 2-29.6 0 0-.3 1.2c0 2.7-.8 5.8.7 8.4 2.5 4.3 5.7 7.8 10.3 10 3.7 1.7 7.4 4.7 11.4 5.9q5.4 1.6 9.8 4.1c2.1 1.3 4.6 1.9 6.9 2.9 2.4 1 5 .3 7.4 1.3q3.5 1.4 7.2 2.2 2.9.5 5.3 1.4c2.2.8 4.8.8 6.8 2q4 2.6 9.1 4.8c1.3.5 2.5.2 3.8.9 3.6 2 7.1 3.9 10 6.8q2.3 2.3 5.3 3.5a2 2-3.5 0 1 1 .9c1.4 2.6 3.5 4 6 5.6 2.5 1.7 3.4 5 5.4 7.4 2 2.4 3 5.7 4.4 8.6q1 2 1.8 4.4l2.6 8.2q.8 2.6 1 5 .2 2.9 1 5.5.5 2.2.5 4.7c-.1 4.8.9 10.7-1.2 15.2-1.8 3.8-.1 8.1-2 12.2q-1 1.8-1.3 4-.9 4.9-3.4 10c-1 2-1.2 4-2.4 5.8a26 26 0 0 0-2.4 5.6q-.5 1.4-1.6 2.4-2 1.8-3.3 4c-1.3 2.4-3.3 3.5-5 5.4-1.7 1.7-1.9 4-3.4 5.7q-1 1.3-2.4 2-3.4 2-5.2 5.3c-1 1.9-2.8 1.5-4.5 2.6q-4.6 3.1-8 6.2c-2.3 2-5 2.3-7.2 4.1a26.2 26.2 0 0 1-12.7 6.2c-4.3.7-7.6 3.3-11.6 4.8l-12.6 4.6-4.8 2q-3 1.4-5.7 1.8-4.9.6-9.8 1.8c-3.7 1-7.3.4-11 1.2-3.5.8-7 .1-10.3 1.3q-2.5 1-5.6 1.6-2 .4-3.7 0-2.1-.5-4.1-.1c-3.7.7-7.7.2-11.5.5l-1-.2q-5-2.4-10.3-.3c-2.8 1-7.5.2-10.2-.6-3.6-1-7.6 2-10.8-.3q-.4-.3-1-.3c-3.8 0-7.5 0-11.3-1q-3.8-1-7.6-1c-2.4 0-4.3-1.8-6.7-2.1q-2.5-.4-4.9-2c-2.4-1.7-5.3-1-7.5-3-1.2-1-2.7-1-3.9-2-2.5-1.8-5.1-3-7.5-5q-10-7.9-17.1-16.4c-2-2.3-2.8-5.2-4.3-7.8q-3-5.6-6-12.4-1-2-1-4.2 0-2.8-1.5-5.3-.3-.5.2-.8c1.5-1 2.5-2 4.2-2.8 3.5-1.8 7.1-3.8 10.9-5 2-.5 3.4-2 5.3-3l4.6-2.6q1.2-.7 2.3-.9c1.2-.2 2.2-.3 3.1-1q2.5-2 5.5-3.3c2-.9 3.7-2.2 5.5-3.5q1.4-1 2.9-1.5c1.6-.5 3.2-.8 4.6-1.7q4.3-2.6 8.9-4.7a10 10 0 0 1 2.5-.5q.5 0 .8-.3Z"/></svg>