<?xml version="1.0" standalone="no"?>
<!DOCTYPE svg PUBLIC "-//W3C//DTD SVG 20010904//EN"
 "http://www.w3.org/TR/2001/REC-SVG-20010904/DTD/svg10.dtd">
<svg version="1.0" xmlns="http://www.w3.org/2000/svg"
 width="957.000000pt" height="957.000000pt" viewBox="0 0 957.000000 957.000000"
 preserveAspectRatio="xMidYMid meet">
<metadata>
Created by potrace 1.14, written by Peter Selinger 2001-2017
</metadata>
<g transform="translate(0.000000,957.000000) scale(0.100000,-0.100000)"
fill="#000000" stroke="none">
<path d="M2035 6292 c-1 -2 -147 -3 -324 -3 l-320 0 -21 -26 c-11 -14 -23 -38
-27 -52 -3 -14 -9 -30 -13 -36 -5 -5 -19 -41 -33 -80 -13 -38 -33 -90 -45
-115 -11 -25 -29 -74 -40 -110 -12 -36 -35 -101 -53 -145 -40 -103 -121 -322
-200 -545 -17 -47 -36 -94 -43 -105 -8 -11 -17 -36 -21 -55 -7 -34 -35 -111
-77 -215 -23 -57 -56 -142 -88 -230 -12 -33 -30 -79 -41 -102 -10 -24 -19 -48
-19 -55 0 -7 -11 -35 -25 -63 -13 -27 -25 -54 -25 -58 0 -5 -19 -56 -41 -115
-23 -59 -50 -129 -61 -157 -10 -27 -23 -59 -27 -70 -17 -44 -33 -92 -42 -129
-5 -21 -21 -58 -34 -81 -14 -23 -25 -52 -25 -64 0 -13 -6 -37 -14 -54 -47
-112 -76 -188 -86 -227 -7 -24 -18 -53 -26 -64 -8 -11 -14 -35 -14 -52 0 -29
3 -32 43 -40 23 -4 53 -7 67 -6 24 1 90 2 205 1 28 0 91 0 140 0 50 0 108 0
130 -1 22 0 58 0 80 1 22 1 65 0 95 -2 32 -2 71 3 93 11 31 13 39 22 48 56 6
22 20 58 31 80 11 21 28 68 38 105 9 36 29 91 42 121 14 30 28 68 32 85 4 16
16 48 27 72 22 49 95 249 114 313 21 69 50 147 61 162 20 27 44 85 70 173 30
99 58 155 80 155 14 0 44 -49 44 -72 0 -8 18 -58 40 -112 22 -54 40 -106 40
-117 0 -11 11 -41 24 -67 13 -26 27 -63 31 -82 4 -19 20 -63 36 -98 16 -34 29
-72 29 -85 0 -13 4 -27 9 -33 5 -5 24 -49 41 -99 56 -155 61 -168 80 -210 10
-22 22 -54 26 -70 4 -17 23 -68 43 -115 20 -47 43 -104 50 -127 13 -40 17 -43
67 -53 48 -10 913 -17 954 -8 37 8 39 17 19 76 -11 31 -24 66 -29 77 -32 70
-50 115 -50 124 0 8 -30 86 -80 206 -24 58 -29 71 -54 136 -15 36 -26 69 -26
73 0 4 -20 54 -45 110 -25 57 -45 110 -45 118 0 7 -9 31 -20 53 -11 22 -20 45
-20 53 0 14 -84 230 -103 267 -6 11 -12 26 -13 34 -2 8 -6 17 -11 20 -5 3 -19
40 -32 81 -13 41 -27 80 -31 85 -4 6 -11 24 -15 40 -18 68 -15 77 51 140 77
74 94 88 94 79 0 -4 30 24 68 62 37 38 82 80 101 94 18 14 42 34 53 45 13 12
18 14 14 5 -4 -8 -1 -6 6 5 23 34 133 136 146 134 4 -1 13 9 19 22 7 13 13 20
13 16 0 -4 15 7 33 25 50 50 88 78 98 72 5 -3 9 2 9 11 0 10 5 13 12 9 6 -4 8
-3 5 4 -4 5 6 21 22 35 17 14 28 27 25 30 -3 3 3 8 14 11 11 4 23 14 26 22 3
8 10 12 16 9 5 -3 10 -1 10 4 0 6 6 11 13 11 18 0 59 45 50 54 -4 4 1 4 11 0
12 -5 17 -4 13 3 -3 5 17 29 45 54 116 99 154 133 166 151 7 10 19 18 26 18 7
0 22 14 35 31 13 17 25 29 27 26 3 -2 30 21 62 52 32 31 70 65 85 76 55 39
179 164 173 174 -12 18 -118 24 -544 26 -276 1 -434 -1 -447 -8 -11 -6 -27
-18 -36 -29 -9 -10 -20 -18 -25 -18 -5 0 -21 -11 -34 -25 -14 -14 -36 -36 -49
-48 -13 -12 -39 -37 -57 -54 -19 -18 -39 -33 -45 -33 -10 0 -16 -5 -113 -95
-77 -72 -104 -93 -111 -87 -3 3 -5 -2 -5 -12 0 -9 -21 -31 -46 -49 -25 -17
-57 -41 -70 -52 -13 -11 -46 -38 -73 -60 -27 -22 -50 -46 -50 -53 -1 -6 -4
-11 -8 -10 -11 4 -54 -28 -47 -34 3 -4 -4 -9 -15 -13 -12 -3 -21 -11 -21 -16
0 -5 -7 -9 -15 -9 -8 0 -15 -5 -15 -11 0 -13 -25 -39 -38 -39 -6 0 -24 -16
-41 -35 -17 -19 -32 -35 -35 -35 -4 0 -111 -98 -189 -172 -21 -21 -44 -39 -50
-39 -7 -1 -24 -3 -39 -4 -25 -4 -26 -2 -24 36 2 22 12 49 22 61 12 14 14 18 4
13 -12 -7 -13 -6 -4 6 5 8 10 21 9 29 0 8 2 17 5 20 11 9 40 90 40 110 0 11 5
20 12 20 6 0 9 3 5 6 -3 4 7 32 23 64 16 32 26 60 23 64 -4 3 -1 6 6 6 8 0 11
7 7 15 -3 8 1 27 8 42 17 34 31 68 44 108 6 17 29 75 52 130 23 55 43 107 45
115 2 8 4 15 5 15 1 0 3 10 6 23 2 12 11 34 20 48 9 14 18 40 21 58 5 51 -14
61 -124 61 -52 0 -96 -1 -98 -3z"/>
<path d="M4511 6280 c-20 -5 -61 -51 -61 -68 0 -6 -4 -12 -9 -14 -6 -1 -13
-18 -16 -37 -6 -34 -32 -92 -46 -101 -4 -3 -10 -25 -14 -50 -4 -24 -11 -53
-17 -63 -5 -10 -11 -27 -14 -38 -2 -10 -6 -29 -9 -41 -3 -13 -9 -24 -15 -26
-5 -2 -10 -12 -10 -22 0 -10 -4 -21 -9 -24 -4 -3 -12 -20 -16 -38 -4 -18 -9
-35 -10 -38 -1 -3 -7 -24 -15 -47 -7 -24 -18 -43 -23 -43 -6 0 -8 -3 -4 -6 3
-4 -1 -21 -10 -38 -10 -17 -16 -39 -14 -48 1 -10 -2 -18 -8 -18 -5 0 -9 -8 -9
-17 1 -10 -7 -36 -17 -58 -10 -22 -19 -44 -20 -50 -1 -5 -7 -23 -14 -38 -6
-16 -18 -52 -27 -80 -15 -50 -35 -104 -74 -209 -10 -27 -16 -48 -13 -48 3 0
-2 -12 -12 -26 -9 -14 -18 -35 -20 -47 -3 -11 -8 -23 -12 -26 -8 -6 -14 -24
-16 -53 -1 -10 -4 -18 -7 -18 -3 0 -7 -11 -8 -25 -1 -14 -9 -39 -17 -55 -8
-16 -17 -37 -18 -47 -2 -10 -10 -31 -17 -48 -7 -16 -14 -32 -15 -35 -1 -3 -7
-17 -12 -31 -6 -14 -14 -40 -16 -58 -3 -18 -14 -42 -24 -54 -13 -14 -14 -18
-3 -13 9 4 8 2 -2 -7 -10 -8 -18 -19 -18 -26 0 -6 -5 -11 -11 -11 -6 0 -9 -7
-6 -15 4 -8 2 -17 -2 -20 -5 -3 -7 -14 -4 -25 3 -12 0 -20 -7 -20 -6 0 -10 -6
-7 -12 2 -7 -3 -29 -11 -48 -8 -19 -14 -37 -14 -40 -1 -6 -4 -17 -19 -55 -15
-36 -14 -33 -24 -70 -18 -68 -116 -357 -130 -384 -8 -16 -26 -63 -39 -103 -13
-40 -48 -138 -76 -218 -75 -211 -76 -197 6 -205 37 -4 250 -9 473 -11 224 -2
413 -4 421 -4 23 -1 403 -1 415 0 6 0 257 2 558 4 323 2 552 7 557 12 5 5 18
34 29 64 47 137 90 250 104 276 8 16 25 59 36 97 12 37 35 97 51 134 37 81 38
109 7 117 -13 3 -248 6 -523 7 -1030 3 -982 2 -997 24 -13 20 -15 57 -4 85 11
27 39 115 41 127 1 7 9 20 18 30 17 18 41 82 53 141 4 17 11 32 16 32 5 0 8 5
7 11 -2 6 6 16 17 22 11 7 22 14 25 17 12 12 67 13 682 13 579 -1 651 1 680
16 18 9 34 22 34 29 1 6 2 13 4 15 3 4 11 41 13 64 1 13 5 23 9 23 5 0 21 49
22 73 1 4 8 12 16 17 8 5 11 10 5 10 -5 0 -4 4 4 9 7 5 14 20 14 35 0 14 3 26
7 26 4 0 8 10 8 23 0 12 9 43 20 69 11 25 18 49 15 52 -4 3 -2 6 4 6 5 0 10 6
10 13 0 6 14 51 31 98 37 98 41 139 15 140 -10 0 -27 3 -38 6 -11 2 -31 4 -45
4 -21 -1 -652 0 -830 1 -30 0 -100 -1 -155 -1 -80 -1 -169 2 -257 8 -19 2 -27
40 -16 77 12 46 15 55 17 69 2 6 10 18 18 28 9 9 17 27 19 40 1 12 8 36 15 52
7 17 12 33 11 38 -1 4 3 7 9 7 5 0 7 5 4 10 -3 6 -1 10 5 10 6 0 15 11 21 23
6 13 16 24 22 25 35 5 360 13 467 12 286 -3 357 -2 398 3 23 2 42 1 42 -3 0
-4 75 -8 168 -8 92 -1 212 -3 267 -5 55 -1 109 0 121 4 17 6 55 64 59 89 0 3
6 15 13 28 7 12 10 22 6 22 -3 0 -2 6 4 13 6 6 11 17 11 22 4 29 23 85 31 90
6 3 10 15 10 25 0 19 19 69 47 122 7 15 13 30 13 33 -1 9 22 87 52 177 17 48
27 91 24 97 -4 5 -286 10 -738 11 -403 2 -848 4 -988 7 -536 7 -629 8 -649 3z"/>
<path d="M8244 6271 c-2 -2 -50 -5 -106 -7 -57 -1 -123 -7 -148 -12 -98 -22
-156 -34 -184 -39 -16 -2 -40 -9 -53 -14 -13 -5 -35 -9 -48 -9 -13 0 -25 -3
-27 -7 -1 -5 -28 -16 -58 -27 -72 -24 -211 -93 -230 -114 -9 -10 -36 -27 -61
-40 -40 -20 -72 -43 -170 -125 -14 -12 -34 -35 -45 -52 -10 -16 -30 -42 -44
-57 -41 -45 -50 -57 -50 -68 0 -5 -4 -10 -9 -10 -10 0 -66 -82 -63 -93 1 -4
-5 -10 -13 -13 -8 -4 -15 -15 -15 -25 0 -10 -4 -19 -9 -19 -5 0 -14 -20 -20
-45 -6 -25 -16 -45 -21 -45 -6 0 -10 -12 -10 -26 0 -14 -5 -34 -11 -45 -6 -12
-12 -39 -14 -62 -1 -23 -7 -60 -11 -82 -14 -65 -9 -226 7 -236 8 -5 11 -9 8
-9 -9 0 29 -120 43 -138 7 -8 13 -20 14 -27 4 -26 56 -93 95 -121 23 -16 57
-43 76 -60 18 -17 53 -41 77 -53 24 -12 49 -28 56 -36 7 -8 21 -15 31 -15 11
0 19 -5 19 -11 0 -6 7 -9 15 -5 8 3 15 1 15 -5 0 -6 4 -8 9 -4 5 3 12 1 16 -5
4 -6 10 -8 15 -5 4 3 13 -1 19 -8 5 -7 34 -24 63 -37 29 -13 90 -41 135 -62
46 -21 88 -38 94 -38 6 0 39 -13 73 -29 33 -16 82 -36 109 -46 26 -9 64 -32
84 -51 20 -19 39 -34 43 -34 9 0 24 -46 25 -80 1 -32 -36 -106 -74 -147 -17
-18 -54 -44 -83 -59 -29 -15 -55 -30 -58 -34 -11 -15 -98 -49 -140 -54 -25 -3
-61 -8 -80 -11 -54 -10 -61 -10 -120 -1 -61 9 -128 33 -148 53 -7 7 -17 13
-22 13 -13 0 -90 82 -90 96 0 8 -4 14 -8 14 -9 0 -64 116 -67 140 -3 33 -38
110 -50 110 -7 0 -52 -20 -100 -44 -48 -24 -102 -47 -121 -51 -19 -3 -34 -10
-34 -15 0 -6 -5 -10 -11 -10 -17 0 -138 -60 -197 -97 -29 -19 -63 -36 -74 -38
-12 -3 -37 -15 -57 -27 -20 -13 -47 -28 -61 -35 -149 -67 -165 -78 -150 -103
6 -8 10 -26 10 -40 0 -14 25 -75 55 -136 48 -98 64 -120 138 -191 80 -76 200
-159 242 -166 11 -1 29 -8 40 -14 48 -25 132 -45 250 -59 51 -6 239 -16 260
-13 11 1 40 2 65 1 153 -2 250 -1 271 3 13 3 38 8 54 11 17 4 47 8 68 10 96
10 116 12 177 24 64 12 272 85 340 120 19 10 51 21 70 25 19 4 59 22 87 41 29
19 55 34 59 34 3 0 32 20 64 45 32 25 62 45 67 45 15 0 111 97 128 129 8 17
19 31 24 31 18 0 90 109 124 189 41 93 74 209 75 258 0 17 5 40 10 50 5 10 10
47 10 83 2 138 -53 334 -122 434 -28 42 -122 136 -135 136 -5 0 -15 7 -22 17
-18 22 -115 83 -131 83 -7 0 -35 12 -63 26 -46 24 -122 51 -168 60 -11 2 -34
8 -51 13 -17 6 -45 12 -62 14 -18 3 -69 21 -115 41 -236 103 -309 160 -309
242 0 159 297 285 515 219 62 -19 165 -71 197 -99 39 -34 74 -87 93 -141 28
-78 32 -80 101 -50 32 15 81 33 107 41 26 8 73 30 105 49 31 19 63 35 71 35
14 0 37 10 226 100 55 26 118 53 139 60 80 26 93 57 59 141 -39 95 -86 163
-178 253 -137 134 -364 251 -529 271 -22 3 -56 10 -76 15 -19 5 -48 9 -65 10
-16 0 -79 1 -138 3 -60 1 -110 0 -113 -2z"/>
</g>
</svg>
